<svg width="261" height="264" viewBox="0 0 261 264" fill="none" xmlns="http://www.w3.org/2000/svg">
<path d="M117.735 156.858C115.091 162.688 111.938 167.443 108.374 173.973C103.08 183.671 98.974 194.339 93.0011 203.384C77.7782 226.447 48.0702 224.861 28.8524 207.269C18.9758 198.229 15.7315 185.246 14.6218 173.121C12.8201 153.47 13.1531 134.317 15.6206 115.662C17.2329 103.454 21.3716 89.2071 28.872 78.5629C32.3491 73.6258 35.4368 69.776 38.1349 67.0136C41.6599 63.4048 49.2975 56.5104 55.3553 52.7077C58.7889 50.5526 61.9614 48.7012 64.8728 47.1534C70.0428 44.3968 77.8827 43.2625 83.947 42.9275C93.9998 42.3691 107.545 45.5665 115.639 41.8401C118.557 40.4942 120.183 38.0609 121.665 35.5394C122.169 34.6852 122.196 33.8192 121.743 32.9415C119.954 29.4503 116.325 27.7869 114.21 25.2713C106.363 15.9202 119.347 4.37085 128.806 11.9529C135.876 17.6129 129.615 24.8364 121.528 23.702C117.996 23.2083 116.331 18.7884 117.663 16.2964C120.255 11.4474 129.034 13.4928 127.781 18.9941C127.761 19.0844 127.772 19.1768 127.814 19.2515C127.855 19.3262 127.923 19.3773 128.003 19.3938C128.269 19.4448 128.462 19.3037 128.584 18.9706C130.79 12.8286 120.607 10.2014 116.664 15.068C111.86 20.9984 119.504 26.0002 123.427 29.6501C123.491 29.7114 123.577 29.7508 123.67 29.7615C123.763 29.7722 123.857 29.7536 123.936 29.7089C132.834 24.7953 138.017 12.4466 123.989 8.50863C121.055 7.68577 118.053 7.25476 114.98 7.21557C113.276 7.19206 110.822 6.57492 112.983 4.60007C113.052 4.53716 113.138 4.48796 113.233 4.45559C113.329 4.42322 113.432 4.40837 113.538 4.41199C119.615 4.67648 124.707 5.04088 129.256 7.65051C132.553 9.5372 134.616 12.4289 136.391 15.5205C136.411 15.5551 136.439 15.5857 136.472 15.6106C136.505 15.6355 136.543 15.6543 136.585 15.6658C136.626 15.6773 136.669 15.6812 136.712 15.6775C136.755 15.6737 136.797 15.6623 136.835 15.644C142.24 13.0108 147.447 10.121 152.456 6.97459C155.107 5.31713 158.88 3.40105 161.915 2.22555C170.149 -0.952238 178.298 -0.726932 186.362 2.90146C193.444 6.08709 195.292 10.7009 197.452 17.3602C198.941 21.9623 198.96 27.4637 201.434 31.5074C204.803 37.0147 209.659 37.908 216.742 38.3547C228.427 39.0953 248.493 39.0659 251.032 52.79C253.298 64.9858 239.413 79.5268 230.215 87.2969C222.049 94.1972 211.911 99.5868 201.003 102.514C189.736 105.539 177.986 107.751 165.753 109.15C165.514 109.177 165.377 109.255 165.342 109.385C165.325 109.451 165.349 109.528 165.411 109.602C165.473 109.677 165.569 109.743 165.682 109.79C168.567 110.995 172.262 115.033 173.352 117.719C175.449 122.883 176.637 126.014 176.916 127.111C179.836 138.549 182.865 149.965 186.003 161.36C188.744 171.31 192.067 180.891 195.944 190.536C197.002 193.163 197.27 195.079 194.743 196.836C191.819 198.882 188.085 199.011 185.794 196.131C182.908 192.505 182.784 189.807 181.929 184.311C181.194 179.598 180.545 174.745 179.984 169.753C179.893 168.953 180.204 168.311 180.917 167.825C182.216 166.943 182.464 168.424 182.621 169.33C183.7 175.485 184.69 181.653 185.591 187.832C185.996 190.589 186.166 193.504 189.116 195.156C189.934 195.614 190.785 195.669 191.669 195.32C193.423 194.623 193.945 193.476 193.235 191.882C190.128 184.876 187.994 179.304 186.832 175.166C183.483 163.217 179.886 151.35 176.922 139.319C175.717 134.433 174.429 129.566 173.058 124.719C170.963 117.296 164.611 108.309 154.819 110.831C143.082 113.857 137.292 122.392 131.809 131.414C126.782 139.672 121.691 148.129 117.735 156.858ZM208.197 58.6322C204.104 58.2854 201.63 57.0394 199.065 54.2476C198.901 54.0654 198.458 53.9302 198.647 54.3651C199.487 56.293 199.996 58.2992 200.174 60.3837C200.182 60.482 200.168 60.5784 200.131 60.6652C200.095 60.752 200.038 60.8267 199.966 60.8833C196.049 63.969 194.88 48.6228 194.698 46.789C194.456 44.2793 197.491 40.2473 195.618 37.4966C194.228 35.4512 193.679 37.4496 193.614 38.3841C193.085 45.7898 191.525 52.9369 195.285 59.9488C195.864 61.0224 196.567 61.6337 197.394 61.7826C200.781 62.3997 204.548 62.9581 206.598 65.7499C212.838 74.2606 184.834 80.3497 180.271 81.0668C173.909 82.062 167.496 82.6654 161.034 82.877C152.417 83.1533 143.507 85.3221 135.079 80.0499C133.365 78.9802 132.029 77.6127 131.071 75.9474C127.827 70.3109 128.467 65.9615 130.196 59.1494C132.581 49.7493 134.448 41.603 135.797 34.7107C137.279 27.1169 140.576 21.0807 148.807 18.0126C159.017 14.2098 169.442 13.6221 176.714 21.6038C181.727 27.1051 183.875 36.5092 182.889 43.5446C182.702 44.8964 182.179 45.9309 181.322 46.6479C178.176 49.2811 168.88 48.4876 164.8 48.2466C164.744 48.243 164.688 48.252 164.636 48.2729C164.585 48.2938 164.54 48.3259 164.505 48.3665C164.47 48.407 164.447 48.4548 164.437 48.5056C164.427 48.5564 164.431 48.6087 164.448 48.658C165.292 51.0718 166.104 53.4992 166.883 55.9403C169.677 64.7096 156.641 69.823 149.094 68.2772C146.444 67.7365 143.18 65.9909 140.119 65.0505C139.913 64.9861 139.695 64.9903 139.505 65.0622C138.115 65.5677 137.142 66.4552 136.966 67.8835C136.274 73.5435 142.26 76.6175 147.835 76.6116C157.561 76.5998 165.599 73.3084 171.948 66.7373C180.336 58.068 187.047 44.9963 185.2 33.3765C184.025 25.9884 180.095 19.0235 172.816 14.9739C168.919 12.7933 163.005 11.1476 158.579 12.8639C152.291 15.3011 148.248 16.9782 146.451 17.895C139.923 21.2276 137.26 23.7608 132.67 27.4108C130.719 28.9683 128.31 29.797 126.032 31.0137C125.888 31.0898 125.674 31.1272 125.425 31.1195C124.217 31.0842 125.34 33.4352 125.209 34.2052C123.969 41.2112 117.017 45.7957 109.464 46.4422C106.357 46.7087 100.549 46.5539 92.0415 45.9779C83.3595 45.3901 73.5548 46.2012 65.8454 50.1039C61.9244 52.0905 58.1796 54.322 54.6111 56.7984C51.5561 58.9261 48.6447 61.8707 45.6876 64.4216C36.6531 72.2211 28.3824 82.9123 24.5049 93.5154C21.0843 102.89 19.0803 112.641 18.0424 122.821C16.2015 140.888 16.2037 158.682 18.0489 176.2C18.7583 182.971 20.6883 189.57 23.8391 195.996C27.6056 203.69 36.7315 211.019 45.198 214.352C55.1333 218.254 65.3624 219.524 75.3368 214.98C81.9038 211.983 88.1183 206.047 91.5192 200.175C96.1213 192.234 102.081 178.728 107.904 168.248C110.232 164.056 112.528 159.849 114.791 155.629C118.12 149.417 122.742 139.454 127.749 131.731C132.827 123.89 137.129 116.156 145.928 111.171C149.773 108.997 156.203 107.304 160.374 106.84C171.75 105.582 182.301 103.956 192.028 101.961C200.536 100.218 208.591 97.3083 216.194 93.2332C223.864 89.1131 230.548 83.2003 236.508 77.0818C238.793 74.7347 240.784 72.2132 242.481 69.5174C251.764 54.7824 250.125 44.9552 229.798 42.1399C214.059 39.9593 200.573 44.2499 196.264 25.7651C194.423 17.8774 193.399 8.14422 183.496 4.78815C173.121 1.26947 163.662 2.80938 155.12 9.40789C154.954 9.53328 154.98 9.59205 155.198 9.58422C156.782 9.50977 158.37 9.43532 159.963 9.36087C178.411 8.50863 189.162 23.5963 188.235 38.8132C187.628 48.7462 183.757 58.7792 176.544 66.3435C174.468 68.5241 172.425 70.8105 170.12 72.4797C162.448 78.0359 153.694 80.0911 143.859 78.6452C141.318 78.269 139.322 77.5559 137.873 76.5058C134.981 74.4134 133.043 70.8105 133.917 67.3897C135.608 60.7775 141.855 62.3468 146.797 64.5097C152.724 67.1135 160.25 65.8146 163.482 60.3014C165.349 57.1099 161.882 52.114 161.882 48.3407C161.882 48.248 161.849 48.1594 161.789 48.0928C161.73 48.0262 161.649 47.9866 161.562 47.9821L159.937 47.8998C159.838 47.8953 159.74 47.9162 159.653 47.9606C159.566 48.0051 159.493 48.0718 159.439 48.1546C159.385 48.2374 159.353 48.3338 159.345 48.435C159.338 48.5363 159.355 48.6392 159.395 48.7345C160.113 50.4272 160.925 52.0807 161.83 53.6951C164.957 59.2787 158.272 65.2738 152.143 64.7507C150.452 64.6038 148.259 64.2453 147.319 63.0698C146.509 62.0588 147.613 61.8296 148.448 61.9471C150.72 62.2528 153.118 62.145 155.642 61.6239C156.656 61.4123 156.895 60.9049 156.36 60.1016C155.655 59.0378 155.59 57.3921 155.798 56.005C156.194 53.3836 156.451 50.7485 156.569 48.0997C156.573 48.0194 156.546 47.9401 156.493 47.8749C156.439 47.8097 156.363 47.7625 156.275 47.7412C150.759 46.3776 146.157 42.5924 145.596 37.3085C145.282 34.3874 145.596 30.8844 147.6 28.4511C153.279 21.5509 164.069 22.2562 170.349 27.9339C175.917 32.9592 173.73 42.9568 165.244 44.0442C161.654 44.5085 156.471 44.3498 153.481 42.3632C148.03 38.7485 149.29 31.4545 154.173 27.8575C154.656 27.5107 155.387 27.2521 155.466 26.5703C155.492 26.3587 155.402 26.3136 155.198 26.4351C152.491 28.026 150.95 29.0721 150.576 29.5737C145.628 36.1624 149.708 44.1382 158.383 45.1492C163.68 45.7683 169.524 45.8917 175.917 45.5194C178.404 45.3784 179.808 44.6143 179.906 42.2868C180.167 35.8098 179.116 28.9683 174.429 23.6256C166.889 15.0503 155.72 17.0193 146.699 22.4384C139.975 26.4762 138.741 34.84 137.677 41.7519C136.698 48.1173 132.292 58.3383 131.848 66.3377C131.247 77.0348 140.06 81.3489 150.583 80.5436C160.512 79.7854 169.128 79.6209 178.117 78.5747C181.289 78.2063 184.112 77.6793 186.584 76.9936C189.534 76.1825 208.008 71.1337 203.21 66.2319C203.074 66.0943 202.884 65.9975 202.668 65.9556C200.823 65.5755 198.989 65.1465 197.165 64.6684C187.497 62.1235 189.743 44.4909 190.481 37.9257C190.62 36.6875 191.125 35.6432 191.995 34.793C195.566 31.2958 199.045 36.903 199.456 39.5479C199.926 42.6042 196.871 45.349 197.955 48.3054C200.201 54.465 204.842 55.5054 211.807 56.1225C219.099 56.7632 230.235 57.733 233.747 64.98C233.835 65.1646 233.844 65.3645 233.773 65.5383C233.573 66.032 233.222 66.4356 232.722 66.7491C232.511 66.8802 232.254 66.9355 232.001 66.9039C231.748 66.8723 231.519 66.7562 231.358 66.5786C228.303 63.2049 225.685 61.0126 220.757 60.1251C217.784 59.5922 213.598 59.0946 208.197 58.6322ZM149.545 13.2048C149.604 13.1636 150.498 12.3584 149.447 12.8521C147.21 13.914 144.971 14.9739 142.73 16.0319C142.097 16.3316 138.089 17.6541 137.997 17.8186C137.888 18.0146 137.962 18.0831 138.219 18.0244C142.358 17.1114 146.133 15.5049 149.545 13.2048ZM125.575 19.4361C125.772 18.8595 125.663 18.2241 125.272 17.6696C124.881 17.115 124.241 16.6868 123.491 16.4792C122.741 16.2716 121.944 16.3015 121.275 16.5624C120.606 16.8233 120.119 17.2938 119.922 17.8704C119.725 18.447 119.834 19.0824 120.224 19.6369C120.615 20.1915 121.256 20.6197 122.005 20.8273C122.755 21.0349 123.552 21.005 124.222 20.7441C124.891 20.4832 125.378 20.0127 125.575 19.4361ZM164.624 31.5074C168.058 33.3471 169.259 36.6444 167.888 40.0298C167.836 40.165 167.203 40.5764 167.692 40.6822C167.774 40.6999 167.864 40.6902 167.949 40.6545C168.034 40.6188 168.111 40.5588 168.169 40.4824C173.678 33.2413 168.26 27.9221 160.414 25.9767C160.327 25.9546 160.234 25.9607 160.15 25.9939C160.067 26.0271 159.999 26.0854 159.957 26.1589C158.658 28.3571 156.144 29.2975 154.46 31.5015C151.497 35.3866 153.285 39.7124 157.953 41.5874C158.155 41.6697 158.364 41.6226 158.442 41.4287C158.47 41.3606 158.463 41.279 158.421 41.1963C158.38 41.1135 158.307 41.0342 158.214 40.9702C151.268 36.2858 157.509 27.6988 164.624 31.5074ZM158.671 34.8165C158.009 35.51 157.911 36.2075 158.377 36.9089L160.851 40.6058C161.343 41.3425 162.048 41.4953 162.966 41.0643C169.298 38.102 162.862 30.4495 158.671 34.8165ZM159.271 59.2317C159.406 59.2317 159.536 58.9915 159.631 58.5638C159.727 58.1361 159.78 57.5561 159.78 56.9512C159.78 56.3464 159.727 55.7664 159.631 55.3387C159.536 54.911 159.406 54.6708 159.271 54.6708C159.204 54.6708 159.138 54.7297 159.076 54.8444C159.015 54.959 158.958 55.1269 158.911 55.3387C158.864 55.5505 158.826 55.8019 158.801 56.0785C158.775 56.3552 158.762 56.6518 158.762 56.9512C158.762 57.2507 158.775 57.5473 158.801 57.8239C158.826 58.1006 158.864 58.352 158.911 58.5638C158.958 58.7755 159.015 58.9435 159.076 59.0581C159.138 59.1727 159.204 59.2317 159.271 59.2317Z" fill="#DEDEDE" fill-opacity="0.75"/>
<path d="M208.158 32.9004C209.744 30.9373 210.958 32.1833 212.662 32.5477C218.85 33.8584 226.122 33.8878 232.467 33.8232C234.054 33.8055 235.17 33.5763 235.392 35.1515C235.527 36.0997 235.063 36.5797 234.001 36.5915C225.524 36.6777 217.264 36.1663 209.222 35.0574C207.533 34.8263 207.179 34.1072 208.158 32.9004Z" fill="#DEDEDE" fill-opacity="0.75"/>
<path d="M78.5616 68.7416C90.9339 66.9901 98.2429 65.9321 100.488 65.5677C109.223 64.1453 116.064 61.283 119.798 53.8303C120.342 52.741 120.975 50.6094 121.697 47.4355C122.354 44.5594 123.231 41.7324 124.328 38.9542C124.759 37.8669 125.64 36.4563 126.946 37.9903C127.007 38.0605 127.05 38.144 127.073 38.2353C127.095 38.3266 127.096 38.4235 127.076 38.5193C125.444 46.0014 124.406 54.0007 118.956 60.1486C118.909 60.2022 118.887 60.27 118.894 60.3379C118.901 60.4058 118.937 60.4686 118.995 60.513C122.259 63.011 125.288 65.4795 125.529 69.6643C125.747 73.4416 125.96 77.217 126.169 80.9903C126.626 89.2718 121.586 96.0956 116.253 102.567C115.622 103.327 114.784 103.666 113.74 103.584C110.659 103.337 116.214 97.5826 116.775 96.8832C118.655 94.5557 121.149 90.4297 121.978 87.6084C123.656 81.9131 122.768 76.5058 122.526 70.7282C122.378 67.1311 120.509 64.5156 116.919 62.8817C116.833 62.8429 116.735 62.8273 116.637 62.8366C116.539 62.8459 116.444 62.8799 116.364 62.9346C111.599 66.1613 106.638 67.0371 99.8161 68.3008C91.9305 69.7662 79.4929 71.8038 62.5032 74.4134C54.7482 75.6065 45.8638 78.6099 40.1781 84.1936C26.9789 97.1536 24.0675 115.515 22.8468 132.219C22.0548 143.061 22.2071 153.705 23.3038 164.152C24.7595 178.017 30.7063 196.308 44.4277 203.995C52.248 208.374 60.6232 209.614 69.4227 206.44C76.7077 203.807 79.6256 198.547 79.26 191.605C78.9728 186.28 81.5774 181.255 85.3244 177.223C91.8522 170.182 98.4713 162.635 102.63 154.501C103.469 152.863 104.644 150.051 106.155 146.066C110.241 135.31 113.851 127.435 119.863 117.584C122.833 112.717 128.14 106.681 133.154 103.495C135.797 101.809 142.521 100.563 142.945 105.188C143.252 108.503 139.662 112.823 137.038 114.927C135.758 115.954 134.831 115.795 134.257 114.451C134.22 114.369 134.207 114.279 134.218 114.187C134.23 114.095 134.265 114.004 134.322 113.922C136.209 111.177 138.297 108.967 139.603 105.758C140.066 104.624 139.113 103.86 137.951 104.395C134.796 105.856 131.987 107.949 129.524 110.672C119.217 122.086 113.87 135.199 108.544 148.905C107.401 151.844 105.626 155.811 103.935 158.732C98.6933 167.807 89.9917 175.777 84.6455 183.406C82.3673 186.651 82.55 190.089 82.537 193.915C82.5174 199.176 78.9075 204.636 74.0378 207.463C62.2225 214.322 46.5949 211.019 37.2733 202.297C29.4007 194.926 24.9945 186.845 22.8729 176.812C22.2985 174.096 21.4042 171.299 21.0125 168.707C18.1533 149.71 18.78 131.284 22.4617 112.776C23.4322 107.902 24.4222 104.089 25.4318 101.338C28.13 94.0071 32.2403 87.6006 37.7628 82.1188C45.1719 74.766 57.9468 72.415 68.1824 68.9238C79.4145 65.0916 91.2842 62.0764 103.792 59.8782C107.678 59.1965 110.855 57.5018 113.322 54.7942C115.274 52.6548 116.449 49.3281 118.172 46.6303C118.228 46.5432 118.298 46.468 118.379 46.4094C118.46 46.3507 118.55 46.3099 118.642 46.2894C119.36 46.1287 119.983 46.262 120.509 46.6891C120.584 46.7492 120.641 46.8259 120.677 46.9129C120.712 46.9999 120.724 47.0945 120.712 47.1887C120.542 48.5934 119.582 49.7219 119.223 50.915C116.847 58.8497 109.934 61.8178 101.402 63.2108C93.656 64.4725 86.0555 66.2358 78.6007 68.5006C78.5559 68.5137 78.5163 68.5344 78.4889 68.5591C78.4615 68.5838 78.4479 68.6109 78.4506 68.6358L78.4571 68.6945C78.4612 68.7104 78.4742 68.724 78.4936 68.7327C78.5129 68.7415 78.5372 68.7446 78.5616 68.7416Z" fill="#DEDEDE" fill-opacity="0.75"/>
<path d="M87.7331 133.788C87.3893 134.427 87.5133 134.511 88.1052 134.041C89.6371 132.814 91.0101 131.504 92.2243 130.109C101.624 119.253 114.667 110.936 125.797 101.562C129.692 98.286 132.845 94.5028 135.255 90.2122C135.314 90.111 135.352 90.0082 135.365 89.9129C135.379 89.8176 135.368 89.7327 135.334 89.6656C135.229 89.4697 135.02 89.4501 134.707 89.6068C133.61 90.1554 132.816 90.8156 132.325 91.5875C131.515 92.8571 122.363 105.223 120.581 101.468C120.456 101.198 120.421 100.9 120.483 100.612C120.544 100.325 120.699 100.06 120.927 99.8513C125.216 95.9545 128.258 91.5111 132.396 87.7319C133.228 86.9678 134.228 86.6778 135.399 86.862C145.374 88.4019 128.728 103.443 126.188 105.441C121.21 109.359 116.186 113.229 111.116 117.049C109.066 118.593 106.997 120.335 104.908 122.274C101.52 125.419 97.8577 128.375 94.6722 131.631C91.4344 134.94 88.7515 137.644 84.7499 141.065C80.3371 144.838 77.4127 148.858 74.0247 152.961C70.4214 157.322 66.5113 163.411 69.984 168.665C72.2492 172.098 78.3723 168.072 80.1478 165.997C80.2776 165.846 80.4621 165.74 80.6687 165.7C80.8753 165.659 81.0908 165.685 81.2771 165.774C82.017 166.122 82.6066 166.577 83.0462 167.137C83.0999 167.206 83.1259 167.291 83.12 167.377C83.1141 167.463 83.0766 167.546 83.0135 167.613C79.7039 171.128 71.9946 175.701 67.7124 170.587C62.8492 164.769 66.8899 156.158 71.4659 151.244C72.8802 149.728 74.9125 146.85 77.5628 142.61C83.3856 133.318 91.3756 124.59 82.0082 113.893C78.6595 110.072 73.8028 106.293 68.0061 107.269C63.2017 108.074 57.8815 111.747 54.6503 114.868C42.9459 126.177 42.4824 145.226 48.0441 158.968C52.5875 170.182 61.8047 176.63 72.3928 183.148C74.8995 184.694 78.9728 188.032 76.081 190.836C75.9291 190.984 75.7329 191.08 75.5261 191.106C74.486 191.243 73.335 191.026 72.0729 190.453C62.6686 186.198 54.8091 181.034 48.4945 174.96C40.7852 167.543 37.5735 160.02 35.341 150.492C32.5537 138.555 32.8801 125.953 37.0317 114.639C40.1041 106.277 45.6898 99.3616 53.7886 93.8915C57.1765 91.5993 59.2785 90.9234 63.6651 89.6891C71.8379 87.3792 80.0042 87.4498 87.9747 90.1887C90.2202 90.9606 92.3243 92.1028 94.287 93.6153C97.651 96.2053 100.617 99.1362 103.184 102.408C105.45 105.3 104.19 109.773 102.499 112.629C98.2168 119.864 95.3772 124.837 91.4474 130.185C90.4683 131.525 88.4773 132.401 87.7331 133.788ZM100.358 103.578C95.7623 97.7707 89.5805 92.6455 81.6557 91.3524C69.9884 89.4403 59.9421 92.1126 51.5169 99.3694C33.918 114.522 33.5655 140.788 41.438 159.896C46.8104 172.956 60.336 181.361 73.0978 188.126C73.2057 188.184 73.3186 188.222 73.4245 188.236C73.5303 188.249 73.625 188.238 73.6984 188.202C73.8985 188.104 73.9181 187.91 73.7571 187.621C73.4612 187.092 72.9063 186.606 72.0925 186.163C66.1196 182.93 60.0487 178.875 55.0941 174.467C52.0587 171.757 50.12 168.489 47.9201 165.227C46.732 163.456 45.8225 161.771 45.1915 160.172C39.7473 146.296 39.6951 132.037 47.4305 118.871C52.2089 110.737 64.9903 100.95 76.0875 105.588C84.2799 109.014 92.7791 121.269 88.3076 129.386C88.2893 129.419 88.2775 129.452 88.2729 129.484C88.2684 129.515 88.2713 129.544 88.2815 129.568C88.2989 129.603 88.3206 129.635 88.3467 129.662C88.3642 129.678 88.3862 129.688 88.4112 129.693C88.4361 129.697 88.4635 129.696 88.4914 129.69C88.5192 129.683 88.547 129.671 88.5727 129.654C88.5984 129.637 88.6216 129.616 88.6405 129.592C89.3759 128.647 90.3638 127.031 91.6041 124.743C93.3209 121.586 97.0875 116.261 99.7182 110.913C101.089 108.133 102.173 105.876 100.358 103.578Z" fill="#DEDEDE" fill-opacity="0.75"/>
<path d="M188.405 215.468C183.346 211.066 180.193 203.513 178.659 197.36C175.33 183.994 174.187 170.282 173.424 156.652C172.843 146.278 170.767 131.79 161.393 124.743C153.899 119.106 146.555 122.221 139.44 126.147C139.347 126.199 139.244 126.229 139.145 126.232C139.045 126.235 138.952 126.212 138.878 126.165C138.474 125.899 138.45 125.47 138.807 124.878C141.822 119.9 149.878 118.283 155.537 119.118C171.419 121.463 174.958 142.405 175.995 153.572C176.492 158.938 177.236 164.204 177.608 169.647C178.502 182.966 180.023 196.208 186.303 207.916C192.498 219.465 204.47 217.89 215.985 220.787C229.458 224.179 238.865 231.05 250.275 238.714C255.857 242.464 266.516 250.81 257.528 257.163C252.815 260.502 245.334 261.148 238.708 261.577C220.985 262.718 203.288 263.047 185.526 263.129C183.274 263.141 178.737 263.035 180.891 259.732C186.159 251.65 222.454 256.652 231.808 258.039C235.042 258.517 237.701 258.705 239.785 258.603C243.956 258.398 253.291 257.363 256.268 254.477C258.18 252.62 258.448 250.228 256.607 248.094C254.584 245.759 252.286 243.663 249.714 241.805C243.634 237.421 237.294 233.377 230.692 229.674C222.408 225.037 214.758 223.456 205.54 221.839C198.216 220.552 193.255 219.694 188.405 215.468ZM223.224 260.126C212.003 258.715 200.651 257.681 189.456 258.78C187.759 258.944 185.976 259.573 184.227 259.92C184.104 259.945 183.993 259.986 183.905 260.038C183.816 260.091 183.754 260.153 183.724 260.22C183.672 260.337 183.674 260.457 183.731 260.578C183.765 260.649 183.832 260.708 183.923 260.745C184.013 260.782 184.123 260.796 184.234 260.784C191.936 259.985 200.201 260.29 207.975 260.132C212.551 260.038 218.145 260.49 223.218 260.29C223.901 260.267 223.903 260.212 223.224 260.126Z" fill="#DEDEDE" fill-opacity="0.75"/>
<path d="M64.6508 244.397C68.9287 245.538 73.5308 246.014 78.4571 245.826C89.2759 245.41 99.5702 243.608 109.34 240.418C112.852 239.272 116.599 238.291 120.183 237.862C128.395 236.894 133.904 236.459 136.711 236.557C140.58 236.694 144.44 236.596 148.291 236.263C154.898 235.681 156.066 233.542 155.74 228.017C155.244 219.647 154.806 212.001 153.742 202.984C152.267 190.489 151.601 177.435 152.443 164.886C152.75 160.278 155.714 138.226 160.923 136.239C165.068 134.658 167.653 141.012 167.914 143.874C168.776 153.255 167.64 162.682 166.419 171.986C164.944 183.259 165.114 193.339 167.039 204.295C169.938 220.758 170.858 237.574 194.058 240.589C201.63 241.576 231.149 245.743 232.853 253.943C232.89 254.136 232.853 254.334 232.748 254.501C232.217 255.312 231.44 255.79 230.418 255.935C230.377 255.941 230.335 255.94 230.294 255.931C230.253 255.921 230.215 255.904 230.181 255.881C230.147 255.857 230.118 255.828 230.096 255.793C230.074 255.759 230.059 255.722 230.052 255.682C229.21 250.704 219.673 248.406 215.469 247.46C206.448 245.426 197.326 243.833 188.105 242.681C184.795 242.27 178.287 238.473 175.969 236.204C170.982 231.326 167.79 225.431 166.393 218.519C164.174 207.52 162.801 197.007 162.274 186.98C162.039 182.519 162.248 177.535 162.966 173.05C164.324 164.559 165.051 156.305 165.146 148.288C165.153 147.7 163.815 133.994 160.609 140.735C160.244 141.507 159.965 142.305 159.774 143.128C158.716 147.689 157.189 152.673 156.517 157.116C152.789 181.702 158.331 206.205 158.873 230.127C158.912 231.637 158.357 235.046 156.765 236.551C154.565 238.626 145.635 239.213 143.246 239.137C134.594 238.851 127.085 239.323 120.718 240.554C113.231 241.999 103.321 245.426 96.0822 246.813C86.9737 248.561 77.9936 249.084 69.142 248.382C66.6353 248.183 64.0699 247.379 61.4457 245.973C61.2686 245.874 61.0562 245.835 60.8451 245.861C43.4681 248.053 19.0607 239.196 24.1589 219.571C27.3575 207.257 40.0541 216.638 46.843 218.977C52.3002 220.854 57.6683 221.975 62.9471 222.339C73.8746 223.086 86.3231 216.156 92.2634 207.246C97.2419 199.773 101.287 192.421 104.399 185.187C107.095 178.934 109.725 174.449 112.317 168.989C113.975 165.515 116.547 161.025 118.355 156.922C119.182 155.041 119.98 153.431 120.751 152.091C123.427 147.436 125.823 142.716 128.91 138.208C131.802 133.988 134.583 128.663 140.641 127.264C145.935 126.047 152.169 128.939 152.952 133.882C153.183 135.344 152.791 137.834 151.777 141.353C150.504 145.772 148.579 150.316 148.396 154.889C147.58 174.978 149.721 188.332 152.867 214.845C153.553 220.635 151.627 227.917 144.388 229.71C137.107 231.52 128.075 232.84 117.291 233.671C113.616 233.953 108.74 233.136 104.47 233.653C97.107 234.547 90.2594 236.792 83.1767 238.344C80.3132 238.971 74.2728 240.738 65.0556 243.645C64.9342 243.683 64.8267 243.735 64.7417 243.795C64.6567 243.855 64.5965 243.923 64.566 243.992L64.4876 244.162C64.4774 244.184 64.4736 244.207 64.4764 244.231C64.4792 244.255 64.4886 244.278 64.504 244.3C64.5194 244.323 64.5405 244.343 64.5658 244.36C64.5911 244.376 64.6201 244.389 64.6508 244.397ZM28.1213 217.896C22.3899 231.802 34.871 241.177 48.7557 242.934C52.8029 243.443 56.7283 243.514 60.5318 243.146C60.7408 243.126 60.9421 243.053 61.1128 242.934C66.7201 239.131 73.4568 238.59 79.9259 236.663C88.412 234.135 96.2323 231.743 104.679 230.879C108.798 230.456 114.007 231.014 117.454 230.862C121.262 230.693 128.116 229.762 138.017 228.07C142.221 227.353 147.75 226.512 148.918 222.439C149.575 220.143 149.799 217.808 149.591 215.433C148.855 207.263 147.985 199.107 146.979 190.965C145.739 180.914 145.498 171.152 145.217 161.213C145.195 160.362 145.289 159.52 145.498 158.685C145.509 158.639 145.511 158.594 145.502 158.553C145.493 158.513 145.473 158.479 145.445 158.456C145.402 158.425 145.354 158.407 145.302 158.403C145.245 158.4 145.182 158.423 145.122 158.468C145.062 158.513 145.009 158.579 144.969 158.656C144.447 159.696 144.185 160.866 143.637 161.824C136.685 174.008 129.132 186.516 123.76 199.816C123.255 201.066 121.721 204.317 119.158 209.567C115.829 216.385 111.07 223.409 103.308 226.659C93.236 230.873 81.4599 233.947 70.5063 236.645C61.4653 238.867 48.4358 239.378 40.2042 234.605C38.3634 233.536 38.3982 232.595 40.3087 231.784C40.3963 231.746 40.4944 231.73 40.5936 231.736C40.6929 231.742 40.7903 231.771 40.8766 231.82C50.8902 237.38 60.8255 235.987 71.7596 233.359C79.9759 231.385 88.0573 229.043 96.0038 226.336C98.5562 225.466 102.068 224.708 104.523 222.874C111.05 217.984 114.445 212.388 117.989 204.595C119.943 200.289 121.891 195.98 123.832 191.67C127.984 182.448 133.108 173.75 138.134 164.974C141.359 159.344 144.76 153.055 146.725 147.013C148.487 141.57 151.96 134.57 147.945 131.296C142.651 126.976 135.647 132.813 133.258 136.939C128.63 144.955 123.793 152.873 119.758 161.195C114.451 172.133 108.962 182.989 103.739 193.962C98.6019 204.777 92.2634 214.939 80.6505 221.122C66.0021 228.922 49.9959 224.255 36.4116 217.561C34.5381 216.644 29.3224 214.998 28.1213 217.896Z" fill="#DEDEDE" fill-opacity="0.75"/>
<path d="M75.1084 136.192C76.3008 136.843 77.0275 137.746 77.2887 138.902C77.3091 138.989 77.3075 139.081 77.2839 139.172C77.2603 139.263 77.2152 139.351 77.1516 139.431C74.7189 142.507 72.0686 145.434 69.2007 148.212C68.3652 149.017 67.4709 149.422 66.5309 148.506C66.464 148.44 66.4155 148.359 66.3894 148.27C66.3633 148.181 66.3604 148.087 66.3807 147.994C66.9682 145.185 71.2048 141.711 73.5287 139.425C73.8289 139.131 73.7571 138.976 73.3132 138.96C72.3145 138.919 59.6505 139.871 64.3506 136.127C64.4928 136.014 64.6984 135.953 64.925 135.957L74.56 136.063C74.7684 136.063 74.9591 136.108 75.1084 136.192Z" fill="#DEDEDE" fill-opacity="0.75"/>
<path d="M68.2803 177.082C60.9039 174.214 61.0149 169.212 57.9925 163.664C54.8069 157.81 52.8094 145.714 58.7497 140.536C58.8281 140.465 58.919 140.41 59.0168 140.374C59.1146 140.337 59.217 140.32 59.3176 140.324C60.695 140.371 60.8451 141.247 60.4078 142.252C57.5355 148.839 57.553 155.314 60.46 161.677C61.981 165.01 63.0972 170.182 65.989 172.539C76.0418 180.709 84.3909 171.21 89.5609 164.246C91.8913 161.101 93.1773 157.193 94.7636 153.543C94.8428 153.358 94.9905 153.213 95.1748 153.137C97.205 152.302 98.0209 153.695 97.4791 155.312C93.9998 165.621 82.9939 182.801 68.2803 177.082Z" fill="#DEDEDE" fill-opacity="0.75"/>
<path d="M169.363 177.67C169.441 177.692 169.508 177.736 169.556 177.795C169.605 177.854 169.631 177.926 169.631 177.999C169.598 186.815 170.734 195.126 172.222 203.825C172.853 207.508 173.352 211.446 173.717 215.639C173.778 216.348 173.467 216.885 172.784 217.249C172.497 217.402 172.157 217.341 171.765 217.067C171.61 216.957 171.501 216.784 171.459 216.579C168.952 204.371 166.517 191.799 166.85 179.357C166.889 177.829 167.692 177.194 169.363 177.67Z" fill="#DEDEDE" fill-opacity="0.75"/>
<path d="M14.2432 238.861C21.9003 245.338 26.3131 248.523 33.8331 251.903C45.0479 256.934 56.0537 257.657 68.5545 257.399C87.3088 257.005 106.879 256.082 124.915 257.369C132.771 257.926 142.412 259.089 153.84 260.86C161.804 262.095 167.601 261.613 173.939 257.122C182.262 251.215 189.071 250.105 199.339 249.505C205.771 249.133 212.209 249.054 218.655 249.27C218.761 249.274 218.864 249.296 218.956 249.336C219.049 249.375 219.128 249.431 219.19 249.499C220.267 250.704 219.19 251.574 217.799 251.562C208.426 251.488 199.469 251.954 190.931 252.961C182.086 254.001 177.438 260.002 169.572 262.536C164.839 264.058 161.112 264.34 155.785 263.629C137.84 261.231 118.479 258.874 99.927 259.432C89.1823 259.753 78.4332 260.014 67.6797 260.214C56.4128 260.42 45.7398 259.838 35.6413 255.794C18.0358 248.747 -12.2466 226.542 5.274 206.352C6.68401 204.724 9.07971 202.849 10.8226 200.921C10.8875 200.85 10.9721 200.798 11.0652 200.771C11.1584 200.743 11.2558 200.743 11.3449 200.769C12.3806 201.062 13.0812 201.654 13.4468 202.544C13.4796 202.623 13.4834 202.712 13.4578 202.797C13.4322 202.881 13.3783 202.959 13.3032 203.02C6.01165 208.786 0.998297 216.203 4.44497 225.272C6.41637 230.479 9.68244 235.009 14.2432 238.861Z" fill="#DEDEDE" fill-opacity="0.75"/>
<path d="M191.022 212.682C187.935 210.167 184.41 204.989 189.338 202.073C189.527 201.96 189.742 201.912 189.939 201.938C190.552 202.02 190.988 202.303 191.244 202.785C191.285 202.861 191.302 202.948 191.296 203.04C191.289 203.132 191.258 203.226 191.205 203.314L190.011 205.329C189.963 205.411 189.936 205.5 189.93 205.591C189.925 205.683 189.941 205.774 189.978 205.858C190.975 208.202 192.202 210.431 193.66 212.547C193.786 212.728 193.837 212.924 193.803 213.094C193.699 213.646 193.316 213.809 192.654 213.582C192.045 213.374 191.501 213.074 191.022 212.682Z" fill="#DEDEDE" fill-opacity="0.75"/>
<path d="M113.466 204.912C114.282 205.435 114.308 206.875 113.89 207.733C110.765 214.152 106.109 219.506 99.9205 223.797C99.836 223.854 99.7356 223.886 99.6389 223.886C99.5423 223.886 99.4564 223.854 99.3983 223.797L98.0013 222.457C97.9531 222.411 97.9181 222.355 97.8985 222.292C97.8789 222.23 97.875 222.162 97.8873 222.092C97.8995 222.023 97.9275 221.954 97.9695 221.889C98.0116 221.824 98.0668 221.766 98.1319 221.716C103.985 217.28 108.396 211.859 111.364 205.453C111.812 204.481 112.513 204.301 113.466 204.912Z" fill="#DEDEDE" fill-opacity="0.75"/>
<path d="M184.612 222.31C181.224 218.942 178.261 212.535 180.571 208.033C181.111 206.987 181.594 207.007 182.021 208.092C182.482 209.264 182.819 210.572 183.032 212.018C184.064 218.989 187.772 222.298 194.286 225.384C199.626 227.907 203.845 231.551 206.944 236.316C206.995 236.395 207.02 236.486 207.018 236.576C207.016 236.666 206.985 236.753 206.931 236.827C206.387 237.564 205.647 237.946 204.711 237.973C204.616 237.975 204.521 237.951 204.434 237.905C204.348 237.858 204.275 237.791 204.222 237.709C200.096 231.502 194.88 228.893 187.347 224.949C186.584 224.543 185.389 223.08 184.612 222.31Z" fill="#DEDEDE" fill-opacity="0.75"/>
<path d="M179.638 245.303C179.129 244.558 178.365 244.113 177.347 243.968C177.254 243.957 177.159 243.973 177.075 244.016C176.992 244.058 176.925 244.124 176.883 244.204C175.832 246.296 174.709 248.565 172.549 249.881C170.786 250.963 169.925 249.411 171.002 248.165C172.011 246.997 172.923 245.395 173.737 243.357C175.232 239.625 180.95 241.553 182.432 244.256C184.201 247.477 180.114 251.415 177.334 253.037C170.258 257.152 163.214 258.692 154.904 257.51C141.907 255.659 127.618 252.82 113.413 252.409C99.5484 252.003 81.6884 253.754 72.5756 253.931C61.3521 254.15 49.626 252.495 37.3973 248.964C30.7977 247.054 23.6302 241.447 20.1378 236.339C15.2811 229.222 20.6078 222.045 17.5201 215.033C17.0327 213.932 16.1363 213.323 14.8307 213.205C13.3228 213.076 7.68276 213.358 9.60193 210.355C9.65213 210.277 9.7241 210.211 9.81166 210.163C9.89921 210.115 9.99973 210.086 10.1046 210.079C22.8403 209.35 22.1222 218.401 21.254 226.412C20.882 229.845 21.4042 232.09 22.8338 234.999C24.8639 239.125 31.0327 242.928 35.2823 245.026C38.0805 246.413 41.5468 247.526 45.6811 248.365C56.7696 250.61 68.0301 251.439 79.4624 250.851C97.7076 249.911 115.085 248.6 133.637 251.415C140.8 252.501 147.963 253.58 155.126 254.654C163.403 255.894 176.035 253.525 179.671 245.826C179.711 245.738 179.729 245.645 179.723 245.554C179.718 245.463 179.688 245.377 179.638 245.303Z" fill="#DEDEDE" fill-opacity="0.75"/>
</svg>
