<svg xmlns="http://www.w3.org/2000/svg" width="267" height="275" viewBox="0 0 267 275" fill="none">
  <path d="M67.498 258.151c-.03.072.067.137.292.196 24.17 6.337 50.234 2.426 74.78-.96 10.64-1.466 20.864-2.142 30.492-.935 11.088 1.39 17.599 2.792 28.064 4.574 6.174 1.055 3.298 7.189 1.623 10.373-2.629 4.997-8.913 3.715-13.308 2.489-14.49-4.043-29.317-6.273-44.249-5.363-2.311.139-6.608.612-12.892 1.421-16.581 2.135-33.096 3.791-49.845 3.658-9.556-.076-21.163-1.573-29.42-6.109-4.493-2.464-8.992-5.136-12.53-8.712-4.778-4.833-9.569-10.424-12.958-16.596-6.63-12.067-11.44-24.767-14.43-38.102-3.325-14.827-6.655-29.572-9.31-44.526-1.136-6.412-1.922-13.159-2.766-19.768-2.058-16.053-2.07-34.885 9.55-47.811 3.012-3.348 6.855-6.823 10.86-10.045A1770.97 1770.97 0 0 0 40.61 66.312a26.013 26.013 0 0 0 4.012-4.157 8481.242 8481.242 0 0 0 14.217-18.542c3-3.924 7.219-8.422 10.504-12.914 1.253-1.712 3.55-3.803 5.602-5.483 3.395-2.78 6.804-6.147 10.07-8.44C109.48-.402 143.594-8.893 167.828 13.61c2.93 2.725 5.22 5.575 6.869 8.548 9.043 16.325 5.349 31.297-2.811 47.066-1.074 2.08-1.879 5.29-2.415 9.628a.477.477 0 0 0 .234.474c13.256 7.695 14.561 19.622 16.658 33.268.402 2.637.724 5.41.967 8.32 2.278 27.507 4.33 47.142 8.731 70.53 1.902 10.07 4.538 19.938 6.986 29.882 2.032 8.27 3.934 16.483 14.437 17.809a2789.926 2789.926 0 0 0 35.524 4.258c3.016.346 5.933.857 8.751 1.536a6.183 6.183 0 0 1 2.934 1.617c3.356 3.285 2.915 7.695-.454 10.828-3.96 3.69-12.173 4.669-17.399 4.947-7.621.413-15.238.888-22.851 1.428-5.226.372-10.822-1.289-15.762-2.768-4.609-1.37-9.186-2.148-13.776-3.405a582.058 582.058 0 0 1-20.209-5.932c-1.666-.522-3.624-1.032-5.875-1.529-2.441-.537-5.226-.764-7.089-2.539-5.219-4.96-5.563-9.085-7.407-17.525-4.622-21.183-7.057-38.298-9.64-57.478a3.416 3.416 0 0 0-.507-1.371c-.558-.871-1.084-1.219-1.532-.012a84.186 84.186 0 0 0-1.954 5.976c-1.337 4.681-3.265 9.034-4.629 13.665-4.07 13.804-8.121 25.763-12.951 37.021-4.479 10.449-11.984 22.244-22.715 27.583-9.705 4.833-21.26 5.142-31.751 2.369a.59.59 0 0 0-.415.042.577.577 0 0 0-.28.305Zm85.997-177.928c-.597.627-.502.752.286.373 3.047-1.479 6.697-2.092 10.952-1.839.31.017.615-.079.854-.27.24-.19.396-.462.438-.76.688-4.845 2.122-8.63 4.648-13.582 5.076-9.944 7.258-20.311 4.96-31.399-3.097-14.934-18.645-25.693-33.076-28.517-11.582-2.268-24.877.057-35.77 4.454-9.693 3.917-16.23 8.06-24.507 14.606-.85.676-1.558 1.63-2.519 2.356-4.194 3.153-8.056 7.613-10.997 11.277a1652.61 1652.61 0 0 0-18.729 23.805c-.58.745-.5.82.24.221 1.766-1.432 3.805-2.813 6.116-4.144a304.216 304.216 0 0 1 43.54-20.69 71.067 71.067 0 0 1 21.268-4.568c13.957-.828 30.602 5.364 36.269 18.788 1.502 3.56 2.089 7.687 1.76 12.383-.351 5.11-2.026 13.583-5.733 17.506Zm-98.383 31.961c1.194 1.907-3.7 3.304-4.837 3.897-7.18 3.747-9.75 8.845-13.58 15.668-2.747 4.896-4.071 12.307-4.506 18.542-1.02 14.531 3.168 29.598 9.459 42.675 5.362 11.153 9.279 19.956 11.75 26.408 2.012 5.269 5.007 9.575 8.985 12.919 15.521 13.059 29.33-27.942 32.413-35.947 6.895-17.891 16.451-34.702 30.927-48.79 2.902-2.831 9.005-6.286 12.646-7.423 7.187-2.25 15.334-.74 20.547 4.649 4.298 4.435 6.479 13.078 7.771 18.991 2.142 9.78 4.211 19.574 6.206 29.383.597 2.938 1.818 8.03 2.48 12.117a52.97 52.97 0 0 0 1.175 5.433c1.123 4.113 1.883 8.611 3.337 12.193 2.434 5.983 5.349 11.429 10.4 15.712 1.941 1.643 6.349 4.043 7.978 6.81.035.06.084.108.139.138a.242.242 0 0 0 .166.027c.896-.222-6.154-29.099-6.823-31.929-2.194-9.224-3.746-18.385-5.453-27.627a252.135 252.135 0 0 1-3.454-26.123c-.266-3.368-4.005-38.367-4.349-38.531a.073.073 0 0 0-.048-.008.103.103 0 0 0-.048.019.165.165 0 0 0-.06.102c-.519 3.33-2.707 4.397-6.063 4.896-11.387 1.706-22.864 3.557-34.037 6.337a334.408 334.408 0 0 1-35.328 6.785c-6.908.941-18.47 1.264-23.611-2.912-3.532-2.875-3.837-6.994-.922-10.393 2.116-2.472 3.599-4.037 4.447-4.694 7.864-6.107 13.111-9.895 15.742-11.365a1910.094 1910.094 0 0 0 23.469-13.317c5.102-2.95 10.821-5.61 15.489-8.415 3.967-2.389 9.115-4.903 11.932-8.27 5.07-6.052 7.109-15.624 6.524-22.952-.883-11.081-11.601-18.612-22.078-21.164-20.995-5.11-42.736 7.152-61.043 15.649-7.849 3.645-14.957 8.409-22.28 12.926-6.297 3.891-8.336 8.073-12.49 13.67-3.668 4.948-6.395 10.886-8.745 16.515-4.622 11.094-6.816 24.007-8.225 35.852-.402 3.38-3.259 8.415-3.278 12.856-.085 16.906 3.59 36.636 9.134 58.369 2.506 9.817 6.991 19.262 12.178 28.561 3.454 6.192 8.037 11.391 13.302 16.116 2.727 2.445 5.557 3.595 9.037 5.276 8.569 4.14 17.24 5.538 26.012 4.195 19.314-2.957 29.272-20.779 35.082-37.066a1334.911 1334.911 0 0 0 15.62-46.428c.476-1.503.954-2.765 1.434-3.784.65-1.373 1.721-1.855 3.214-1.447 3.343.917 4.194 3.109 4.661 6.451 1.272 9.103 2.259 18.403 3.921 27.235a1190.06 1190.06 0 0 0 7.362 36.073 16.741 16.741 0 0 0 3.22 6.836c2.012 2.552 7.433 3.196 10.964 3.816 7.064 1.238 14.263 2.116 21.092 4.327.117.032.189.12.228-.095a.158.158 0 0 0-.03-.116.38.38 0 0 0-.12-.111 320.533 320.533 0 0 1-11.451-7.291c-6.934-4.63-10.426-10.607-12.601-18.567-5.271-19.338-9.316-40.767-13.964-58.374-.182-.687-.415-2.094-.701-4.22-.61-4.545-3.205-7.794-7.784-9.748-11.951-5.099-19.819 24.745-21.572 32.219-3.778 16.142-5.693 31.879-17.164 45.285-1.208 1.415-7.966 9.621-9.595 5.932-.325-.746.038-1.556 1.09-2.432 12.945-10.747 17.775-25.536 20.742-41.678 2.239-12.211 4.83-22.08 10.159-32.181 1.39-2.622 4.363-6.621 6.525-8.327 6.686-5.288 15.119-1.737 18.975 4.884.784 1.352 1.491 3.611 2.123 6.778a192.593 192.593 0 0 0 2.597 11.277c.591 2.275.779 4.903 1.396 7.335 2.798 11.081 5.141 22.282 7.92 33.376 2.298 9.185 4.648 19.603 11.159 24.076a733.256 733.256 0 0 1 9.056 6.324c2.837 2.015 6.46 3.601 9.504 5.787 6.927 4.972 14.691 9.116 23.643 8.617a493.277 493.277 0 0 0 28.091-2.369c3.758-.423 8.952-1.579 10.808-4.966 3.571-6.526-9.348-6.658-14.307-7.208a979.129 979.129 0 0 1-29.993-3.759c-7.699-1.08-13.685-3.519-16.119-11.182-.744-2.342-2.263-7.832-4.557-16.47-8.148-30.722-11.419-64.648-14.081-95.396-.221-2.56-.686-5.866-1.396-9.918-1.714-9.754-2.486-15.674-8.147-22.453-7.264-8.693-16.236-4.972-24.87-1.554a.94.94 0 0 0-.461.392 8.946 8.946 0 0 1-3.778 3.424c-.208.101-2.032 1.466.052.872 10.231-2.9 18.728 1.97 26.694 7.518 6.661 4.643 7.459 11.953 8.946 18.978 1.798 8.49 2.123 17.499 3.22 26.135 1.064 8.352 1.421 16.401 2.648 25.075 1.007 7.088 1.669 14.581 2.922 21.259 3.285 17.613 7.498 35.29 11.717 52.619.669 2.729.689 5.25.63 7.966-.017.994-.446 1.201-1.285.619a640.935 640.935 0 0 1-10.303-7.265c-8.77-6.317-13.574-15.889-15.639-25.927-.999-4.852-2.564-10.557-3.388-14.436a5841.187 5841.187 0 0 1-7.472-35.688c-1.708-8.263-3.805-20.235-13.263-23.672-16.158-5.875-31.018 14.72-38.283 25.409-8.049 11.846-13.827 25.903-18.806 39.201a96.037 96.037 0 0 1-11.212 21.322c-4.135 5.926-10.237 9.931-17.515 7.834-8.199-2.357-12.049-10.791-15.327-18.208-4.343-9.817-8.887-19.578-13.133-29.421-7.875-18.251-11.224-37.532-4.07-56.63 3.771-10.077 10.081-17.797 20.209-21.486 1.017-.371 1.809-.106 2.376.796Zm-32.66-18.789a.983.983 0 0 1 1.21-.237c.13.07.242.168.328.288 1.5 2.116-2.084 10.297-2.954 12.818-1.948 5.648-3.064 12.353-3.35 20.115-.004.16-.056.356-.155.588-.137.316-.565 1.408-.202 1.68a.168.168 0 0 0 .107.031.237.237 0 0 0 .117-.041.35.35 0 0 0 .1-.103.417.417 0 0 0 .06-.14c.32-1.474.806-4.304 1.46-8.49 2.12-13.68 6.568-26.951 13.34-39.814.702-1.326 2.227-2.937 2.727-4.08.572-1.315-.422-.62-.688-.342-1.85 1.927-4.427 3.31-6.141 4.77a1690.2 1690.2 0 0 0-11.108 9.546C5.683 100.06 2.19 115.873 3.423 130.479c.611 7.196 1.98 19.591 3.773 29.219.447 2.413.811 5.642 1.434 8.421 1.74 7.79 3.227 15.636 4.824 23.458a232.945 232.945 0 0 0 7.342 27.361c2.2 6.564 5.271 14.347 8.563 20.058 5.024 8.725 12.191 18.473 21.358 23.426 1.882 1.017 3.81 2.281 5.635 3.026 7.284 2.948 14.702 4.53 22.254 4.745 14.715.416 29.786-.396 45.215-2.439 5.966-.796 10.783-1.314 16.191-1.889 9.024-.96 16.84-.859 25.422 0 9.433.941 19.579 3.437 29.161 5.679 5.33 1.245 6.635-3.007 7.641-6.848a.844.844 0 0 0-.124-.703.894.894 0 0 0-.622-.377c-4.882-.644-9.719-1.005-14.75-2.009-14.185-2.83-27.733-3.153-42.048-1.15-14.346 2.009-28.992 3.353-43.936 4.031-8.626.391-17.059-.106-25.299-1.491-1.753-.297-4.947-.55-7.121-1.422-7.226-2.899-13.237-7.638-19.047-13.229-9.589-9.23-17.613-22.149-21.839-34.633-5.423-16.034-9.294-32.685-11.614-49.953-.98-7.297-1.298-16.71-1.76-25.131-.778-14.12 1.182-29.977 7.025-43.06.346-.776.796-1.5 1.35-2.174Zm97.572 23.16c.727.67 1.532 1.232 2.414 1.687 8.453 4.372 19.567-.979 26.085-6.539 2.107-1.798 6.853-5.605 14.236-11.422a13.223 13.223 0 0 1 3.967-2.154c.51-.177.513-.358.006-.543-4.68-1.725-8.037-4.6-13.009-5.522a6.954 6.954 0 0 0-2.72.032c-11.348 2.394-22.956 4.637-31.479 12.704-4.038 3.82-3.872 7.739.5 11.757Zm15.892 5.579c-10.699 3.392-27.188-3.879-21.32-17.241.061-.147.022-.181-.116-.101a288.622 288.622 0 0 0-25.734 16.331c-2.082 1.478-4.248 3.319-6.498 5.521-1.234 1.207-1.812 2.673-2.532 4.202a.843.843 0 0 0-.052.587c.731 2.43 2.514 3.871 5.35 4.321 14.963 2.395 29.569-1.655 43.884-4.169 3.112-.543 5.853-1.12 8.225-1.731a319.608 319.608 0 0 1 24.189-5.256c3.758-.67 7.705-.999 11.672-1.441.883-.101 1.58-.505 2.09-1.213 4.194-5.831-1.246-16.647-5.232-21.48a.727.727 0 0 0-.935-.157c-2.655 1.629-5.284 3.24-7.712 5.332-9.212 7.934-15.204 13.298-25.279 16.495Z" fill="#DEDEDE" fill-opacity=".75"/>
  <path d="M103.378 64.018c2.584 1.036.643 3.418-.83 4.663-6.401 5.4-14.22 9.013-23.456 10.84-9.6 1.902-19.462 2.724-28.09-1.345-1.103-.518-1.556-1.409-1.356-2.672.383-2.426 1.259-4.429 3.161-6.242 13.51-12.85 31.031-22.282 50.312-18.29 2.739.563 7.206 1.504 10.341 2.869 7.031 3.057 14.224 8.307 9.387 16.804-1.93 3.395-4.133 5.92-6.608 7.575-4.356 2.919-8.907 6.179-13.295 8.447-14.042 7.259-30.46 11.1-46.41 9.47-6.843-.701-14.354-2.919-12.997-11.593.368-2.342 1.149-4.165 2.343-5.47a.742.742 0 0 1 .546-.241c2.661-.006 1.727 1.92 1.077 3.424-1.253 2.931-1.11 8.276 2.779 9.331 6.732 1.826 15.717 2.104 22.105 1.125 8.79-1.358 14.145-2.11 21.26-5.313 5.96-2.685 40.853-19.522 22.553-28.442-4.441-2.165-8.074-3.65-10.9-4.454-19.69-5.578-37.289 5.237-50.967 17.803-1.602 1.47-1.673 2.788-.215 3.955a4.19 4.19 0 0 0 2.09.903c15.23 2.173 28.924-.714 41.081-8.661 1.798-1.175 3.61-3.266 5.862-4.473a.28.28 0 0 1 .227-.013Z" fill="#DEDEDE" fill-opacity=".75"/>
</svg>