<svg width="281" height="286" viewBox="0 0 281 286" fill="none" xmlns="http://www.w3.org/2000/svg">
<path d="M81.6924 172.98C81.3472 172.494 80.9935 172.371 80.6312 172.609C80.5916 172.635 80.5577 172.669 80.5315 172.708C80.5053 172.748 80.4875 172.792 80.4791 172.838C80.4707 172.884 80.4719 172.932 80.4827 172.977C80.4935 173.022 80.5136 173.065 80.5417 173.102C80.7633 173.396 81.0766 173.462 81.4814 173.3" fill="#DEDEDE" fill-opacity="0.75"/>
<path d="M0 277.665V274.947C2.979 275.096 5.52117 274.258 7.6265 272.434C10.2411 270.17 10.305 265.744 10.5288 262.355C10.8271 257.895 12.6512 254.245 16.0009 251.406C19.9325 248.067 24.337 247.652 29.0676 246.334C36.0868 244.377 39.0786 239.152 38.3754 231.651C35.39 200.077 33.4594 168.382 34.1371 136.642C34.1839 134.596 34.625 129.974 35.4603 122.777C36.9754 109.788 40.6704 97.8035 50.7261 89.3553C54.843 85.8955 63.1471 85.7612 64.464 79.967C64.6217 79.255 64.6068 77.1979 64.4193 73.7956C63.8482 63.5375 63.6905 53.2731 63.9462 43.0022C64.138 35.2639 65.4038 27.2442 74.7947 26.0291C81.3877 25.1721 87.9871 24.3898 94.5929 23.682C98.8163 23.2301 103.018 23.3452 107.199 24.0274C107.238 24.0337 107.277 24.0319 107.315 24.0223C107.353 24.0126 107.388 23.9952 107.418 23.9711C107.449 23.9471 107.474 23.9169 107.493 23.8825C107.511 23.8482 107.522 23.8104 107.525 23.7716C108.107 16.9222 107.346 10.5205 109.443 4.27868C110.536 1.02987 113.343 0.946728 116.852 0.607778C120.445 0.262431 125.054 -1.03581 128.027 1.72056C128.687 2.33451 128.952 3.08702 128.819 3.9781C127.865 10.4501 127.534 16.8177 127.829 23.0809C127.901 24.62 128.706 25.3341 130.245 25.2233C141.573 24.3791 152.914 24.0636 164.267 24.2768C174.304 24.4622 180.779 24.7948 188.917 28.3186C190.528 29.0178 192.033 29.9046 193.43 30.9791C193.508 31.0384 193.567 31.1181 193.602 31.2094C193.637 31.3008 193.646 31.4003 193.629 31.4971C193.441 32.4436 193.017 33.2323 192.357 33.8633C192.293 33.9235 192.208 33.958 192.119 33.9603C192.03 33.9627 191.942 33.9328 191.871 33.8761C186.633 29.7959 180.69 27.6578 174.041 27.4616C165.607 27.2144 157.173 27.1142 148.739 27.1611C143.12 27.193 136.069 27.9285 129.932 27.8134C126.774 27.7494 125.546 25.575 125.463 22.7291C125.342 18.3291 125.022 14.1914 125.399 9.78503C125.534 8.23737 126.077 6.24843 126.109 4.68158C126.143 3.18935 125.416 2.5221 123.929 2.67985C120.839 3.00388 117.803 3.2597 114.819 3.44729C112.569 3.58799 111.412 4.59205 111.808 6.87517C111.824 6.96816 111.868 7.05512 111.935 7.12549C112.002 7.19587 112.089 7.24665 112.186 7.27168C115.734 8.16063 118.597 8.59551 118.572 12.874C118.534 20.463 118.595 25.0144 118.757 26.5279C119.128 29.9643 119.294 33.324 119.256 36.6069C119.235 38.1333 119.968 38.7216 121.455 38.372C127.234 37.0034 133.043 36.8393 138.882 37.8796C142.794 38.5767 144.929 41.6848 145.038 45.6243C145.134 49.0778 144.526 53.5736 140.576 54.7376C134.234 56.6114 126.85 55.0574 120.419 53.951C119.52 53.7932 119.088 54.1705 119.122 55.0829C120.1 81.7769 120.515 103.572 121.289 118.141C121.6 123.99 119.241 127.499 114.212 128.667C109.232 129.825 108.964 127.497 108.925 123.436C108.827 111.579 108.537 98.2363 108.056 83.4077C107.847 76.9954 107.525 71.1202 107.091 65.7823C106.867 62.9939 107.839 54.2835 102.545 55.7097C97.5527 57.0591 91.7865 59.2655 86.6723 59.566C86.631 59.5686 86.5896 59.5626 86.5506 59.5484C86.5115 59.5343 86.4757 59.5122 86.4453 59.4835C86.4148 59.4548 86.3903 59.4201 86.3733 59.3816C86.3563 59.343 86.3471 59.3013 86.3463 59.2591C86.1673 52.5952 85.4577 44.7801 86.5828 38.2377C86.5968 38.1521 86.6438 38.0752 86.7139 38.0229C86.7841 37.9705 86.8722 37.9467 86.96 37.9563C92.5536 38.5959 98.2687 39.7214 103.881 39.6191C105.16 39.5935 105.987 38.9689 106.362 37.7453C107.308 34.6627 107.459 31.4672 106.816 28.1587C106.654 27.3316 106.157 26.837 105.326 26.675C103.541 26.3254 101.738 26.2188 99.918 26.3553C89.3061 27.127 83.0498 27.6514 81.149 27.9285C70.2303 29.5401 67.4622 31.2221 66.9892 42.8423C66.6141 52.0004 66.6887 60.3804 67.2129 67.9823C67.5262 72.4845 68.4723 78.9886 66.7462 82.781C64.5791 87.5519 60.0339 87.7885 55.8914 89.8798C41.1754 97.3175 39.1873 115.921 37.8576 130.292C36.7389 142.372 36.6622 153.264 37.18 167.506C37.9087 187.753 38.6631 204.976 40.875 228.05C41.8147 237.841 40.4722 246.558 29.4448 249.251C27.7955 249.656 26.1504 250.071 24.5096 250.498C17.7142 252.269 13.5909 256.855 13.4183 264.139C13.3863 265.674 13.8977 267.458 14.032 269.127C14.0363 269.179 14.054 269.228 14.0834 269.27C14.1128 269.313 14.1528 269.347 14.1995 269.369C14.2461 269.391 14.2977 269.4 14.3491 269.396C14.4005 269.392 14.4499 269.374 14.4923 269.345C18.053 266.889 21.601 263.512 24.7845 261.574C30.1608 258.294 36.8795 256.119 43.0037 254.719C47.7215 253.638 49.0704 250.645 50.0421 245.855C52.2923 234.759 53.9544 224.373 60.2576 214.716C65.3398 206.927 79.4805 192.358 68.3572 183.507C66.1453 181.748 62.1115 180.405 60.0339 178.953C51.8065 173.198 47.5937 163.355 46.5773 153.641C45.4436 142.85 45.9785 132.174 48.1818 121.613C50.2914 111.477 53.2129 102.734 60.1554 95.6611C68.4915 87.1745 86.0458 84.4629 91.1408 98.3152C91.9719 100.566 92.5536 103.078 92.886 105.849C93.9174 114.372 94.8635 124.436 95.7244 136.041C96.4532 145.896 91.4029 153.18 81.9097 155.067C71.6111 157.114 59.7526 154.926 57.1188 143.108C56.422 139.981 56.0385 133.956 53.6412 131.724C52.9678 131.097 52.4607 131.21 52.1197 132.063C47.0056 144.892 46.8266 170.07 66.8038 170.045C76.8979 170.032 91.7673 168.906 95.6605 178.8C101.209 192.902 93.7171 206.792 81.718 214.281C77.9782 216.615 74.686 218.47 72.0266 221.7C68.2208 226.313 65.8662 231.619 64.9627 237.618C64.4513 241.02 65.2759 244.249 69.5207 243.469C78.1721 241.87 83.3396 240.811 85.023 240.291C93.8833 237.56 102.2 236.294 110.344 241.141C110.801 241.41 112.075 242.412 114.167 244.147C124.114 252.391 136.561 245.669 146.105 240.643C149.34 238.937 151.916 237.291 153.834 235.705C153.911 235.643 153.97 235.561 154.007 235.468C154.044 235.376 154.057 235.275 154.045 235.175C153.534 230.564 149.103 228.261 144.948 229.361C143.024 229.866 141.081 231.478 139.182 232.706C135.545 235.059 131.37 233.326 129.516 229.681C128.059 226.807 127.215 223.603 126.985 220.069C126.966 219.807 126.742 219.461 126.461 219.519C126.389 219.531 126.32 219.579 126.263 219.656C126.206 219.733 126.163 219.835 126.141 219.947C125.482 223.375 123.846 226.854 120.483 228.306C115.9 230.276 109.916 228.287 106.873 224.686C101.574 218.412 101.893 207.643 106.138 200.838C112.339 190.893 123.68 186.801 134.765 183.756C139.105 182.56 144.859 178.589 144.053 173.466C143.433 169.552 138.377 167.826 135.046 166.886C128.244 164.98 122.561 159.096 118.578 153.487C117.602 152.115 117.862 151.27 119.358 150.955C119.451 150.935 119.548 150.942 119.64 150.975C119.733 151.007 119.816 151.065 119.882 151.14C125.188 157.197 128.538 161.43 135.359 163.745C138.626 164.845 142.672 166.284 144.84 168.759C150.702 175.468 143.695 184.281 136.951 186.251C123.36 190.222 105.908 195.498 105.94 213.283C105.953 218.905 108.734 224.36 114.289 226.023C120.956 228.012 122.216 222.301 123.98 216.801C125.936 210.7 128.589 205.75 133.94 201.938C142.442 195.882 153.355 194.232 162.138 188.419C169.733 183.392 173.076 173.908 172.392 165.114C171.964 159.601 170.692 154.862 165.693 152.394C161.972 150.552 158.948 148.499 157.619 144.496C155.26 137.403 159.594 132.038 165.2 128.488C167.495 127.036 168.895 127.331 171.395 127.273C176.241 127.152 177.749 130.886 179.705 134.525C183.567 141.726 190.375 135.497 191.219 130.138C191.999 125.197 192.241 120.221 191.947 115.212C191.351 105.188 191.144 96.1471 191.327 88.0891C191.374 86.0127 192.06 84.0686 193.386 82.2566C193.444 82.1762 193.482 82.0831 193.495 81.9858C193.509 81.8886 193.498 81.7904 193.462 81.7002C193.207 81.0351 192.725 79.8946 192.018 78.2787C190.004 73.6741 190.055 69.8177 189.915 63.7805C189.755 56.4899 190.266 48.4894 192.574 41.5121C193.347 39.165 193.993 31.657 198.334 35.6284C202.252 39.2162 200.904 46.5964 201.012 51.3289C201.134 56.8097 201.095 65.3282 206.855 68.2317C214.846 72.2671 215.76 62.0474 216.86 57.5195C218.247 51.783 218.554 45.0359 219.634 38.8453C219.672 38.6365 219.767 38.4454 219.909 38.2953C223.521 34.4389 225.784 39.8813 226.545 42.5673C229.326 52.4353 232.394 63.1154 238.678 71.359C247.788 83.3054 258.169 69.3381 261.481 61.5166C261.525 61.4171 261.587 61.33 261.662 61.2623C261.738 61.1946 261.825 61.1481 261.916 61.1265C262.674 60.956 263.337 61.1371 263.904 61.6701C263.97 61.7327 264.016 61.8169 264.035 61.9124C264.055 62.0078 264.047 62.1103 264.012 62.2073C262.133 67.2894 259.704 71.3952 256.725 74.5246C251.732 79.7624 243.473 80.6769 238.16 75.2729C230.125 67.0997 226.155 53.1196 223.623 42.222C223.476 41.6016 222.971 40.847 222.626 40.3226C222.259 39.7726 222.01 39.8216 221.878 40.4697C221.384 42.8359 221.105 45.2235 221.041 47.6324C220.934 51.4312 220.15 56.4004 218.688 62.5399C216.949 69.8625 212.66 74.9851 204.758 70.2462C201.575 68.3319 199.683 65.5563 199.082 61.9195C197.758 53.9382 198.18 47.8179 198.123 40.5656C198.114 39.3249 197.69 38.4637 196.851 37.9819C196.816 37.9613 196.777 37.9487 196.737 37.945C196.696 37.9413 196.655 37.9466 196.617 37.9606C196.578 37.9745 196.542 37.9968 196.512 38.0258C196.482 38.0549 196.458 38.0901 196.441 38.129C192.663 47.7092 192.606 58.3957 192.919 69.1846C192.97 70.8537 193.213 75.0299 194.268 76.3537C196.026 78.5665 197.995 77.8438 200.296 77.9973C210.154 78.6496 215.709 78.9566 223.214 80.8304C229.863 82.4932 235.149 85.6269 240.379 89.8094C251.611 98.7948 257.274 112.724 256.757 126.985C256.495 134.276 253.829 141.969 252.633 149.51C249.558 168.823 250.025 189.064 249.923 208.596C249.893 214.155 250.07 219.711 250.453 225.262C250.824 230.596 253.036 236.236 257.37 239.485C260.439 241.794 265.681 242.99 269.472 244.288C270.482 244.637 271.347 245.207 272.067 245.995C275.732 250.037 277.313 254.832 276.811 260.378C276.561 263.09 274.682 266.563 271.684 267.074C265.451 268.136 260.618 266.205 255.708 262.725C251.105 259.464 247.647 254.034 242.603 251.636C235.731 248.362 229.568 249.826 222.441 251.099C215.696 252.308 210.908 252.224 205.813 247.837C205.464 247.535 205.248 247.609 205.168 248.061C204.643 250.994 202.99 252.877 200.207 253.708C199.555 253.9 199.606 254.469 200.296 254.52C204.119 254.785 207.938 255.077 211.752 255.396C221.682 256.232 231.367 258.242 240.807 261.427C241.834 261.773 243.505 262.664 245.819 264.1C247.161 264.932 250.692 267.447 256.411 271.647C256.433 271.664 256.857 272.041 257.684 272.779C259.25 274.167 260.867 273.591 262.478 273.7C267.656 274.049 273.371 274.369 279.623 274.659C279.879 274.671 280.127 274.756 280.336 274.905C280.546 275.053 280.709 275.259 280.806 275.497C281.669 277.62 279.464 277.511 277.91 277.422C265.657 276.748 253.405 276.064 241.152 275.369C228.75 274.666 214.194 274.48 203.883 273.892C196.103 273.45 187.536 273.335 181.412 273.06C170.349 272.566 159.283 272.25 148.215 272.114C140.345 272.018 131.581 271.5 123.213 271.417C122.037 271.408 120.984 271.039 120.055 270.31C118.031 268.729 115.851 266.863 113.515 264.714C109.675 261.176 105.339 258.526 100.506 256.765C92.7006 253.932 82.6193 256.055 75.7983 257.616C71.854 258.517 67.8969 259.796 64.2339 259.035C58.8683 257.918 55.3821 254.497 53.7754 248.771C53.4622 247.658 53.0531 248.438 53.0083 248.956C52.5289 254.412 53.8841 261.101 60.4494 261.721C66.4266 262.284 71.0357 262.546 77.844 264.35C77.9483 264.378 78.044 264.425 78.1245 264.488C78.2051 264.551 78.2686 264.628 78.3106 264.714C78.7454 265.593 78.5578 266.358 77.7481 267.01C77.6729 267.07 77.5822 267.11 77.4833 267.128C77.3845 267.146 77.2802 267.141 77.1791 267.113C73.0154 265.949 68.1185 265.164 62.4887 264.759C43.5151 263.403 23.5443 265.348 7.84385 275.951C5.53395 277.511 2.91934 278.083 0 277.665ZM110.076 31.4459C109.36 37.093 110.734 42.7144 102.692 42.5034C98.5329 42.3925 94.3031 41.8894 90.0029 40.9941C89.1378 40.8108 88.7052 41.1625 88.7052 42.0493L88.6988 55.6521C88.6985 55.7042 88.7099 55.7556 88.7322 55.8027C88.7546 55.8497 88.7873 55.891 88.8278 55.9236C88.8684 55.9562 88.9158 55.9792 88.9666 55.9909C89.0173 56.0026 89.07 56.0026 89.1207 55.9911C91.6096 55.4368 93.9621 54.9358 96.1783 54.4882C98.7865 53.9574 102.622 52.1859 105.755 53.1452C108.052 53.8486 109.279 55.3793 109.437 57.737C109.712 61.9067 110.185 66.0317 110.325 69.6962C110.99 87.0914 111.35 104.499 111.406 121.92C111.431 130.4 118.783 123.909 118.783 120.059C118.776 112.174 117.99 102.728 117.76 95.3222C117.057 72.508 116.603 58.8903 116.398 54.469C116.187 49.8196 119.934 50.8684 122.849 51.3417C127.298 52.058 141.202 55.8568 141.905 48.1312C142.078 46.1615 142.059 43.4435 140.844 41.7359C140.405 41.1135 139.806 40.7873 139.048 40.7575C135.805 40.621 132.561 40.5613 129.318 40.5784C126.269 40.5912 122.024 41.0133 118.348 40.8982C117.023 40.8598 116.396 40.1776 116.469 38.8517C116.609 36.187 116.586 33.5286 116.398 30.8767C115.947 24.5496 115.774 18.2076 115.881 11.8507C115.883 11.7434 115.865 11.6389 115.83 11.5433C115.795 11.4478 115.743 11.3632 115.676 11.2943C114.871 10.4672 113.78 10.1176 112.403 10.2455C111.632 10.3137 111.21 10.7337 111.137 11.5054C110.766 15.5941 110.528 19.8022 110.421 24.1297C110.408 24.6584 110.159 25.4684 109.673 26.5599C109.587 26.7456 109.571 26.957 109.629 27.1547C110.085 28.7705 110.234 30.201 110.076 31.4459ZM168.633 186.455C162.464 193.72 153.904 196.182 144.034 199.713C139.124 201.465 131.805 205.641 130.303 211.083C129.082 215.522 129.011 227.948 134.023 230.583C136.881 232.086 139.131 228.543 141.579 227.526C146.713 225.396 154.115 226.611 156.308 232.463C156.374 232.646 156.379 232.856 156.321 233.064C155.637 235.462 157.222 233.78 157.753 233.467C168.122 227.34 172.098 243.079 182.799 238.334C187.85 236.102 191.807 234.234 196.819 234.868C202.252 235.552 205.602 238.916 205.589 244.473C205.589 244.577 205.609 244.678 205.646 244.771C205.683 244.865 205.738 244.948 205.807 245.017C207.865 247.008 210.286 248.351 213.069 249.046C213.181 249.074 213.297 249.075 213.409 249.05C213.522 249.025 213.627 248.975 213.716 248.902C213.805 248.829 213.877 248.737 213.924 248.632C213.971 248.527 213.994 248.413 213.989 248.298C213.101 221.847 212.609 196.86 212.832 168.779C212.973 152.106 213.248 137.045 217.192 123.25C218.526 118.595 219.828 113.903 221.098 109.174C221.108 109.137 221.127 109.102 221.152 109.073C221.177 109.043 221.208 109.02 221.244 109.005C221.279 108.989 221.317 108.982 221.355 108.984C221.393 108.985 221.429 108.996 221.463 109.014C222.46 109.569 223.163 110.17 223.572 110.818C225.626 114.058 227.902 117.13 230.4 120.034C233.775 123.96 234.747 128.098 235.284 133.297C235.884 139.079 234.011 147.399 226.116 145.289C225.196 145.041 224.491 144.508 224 143.69C221.782 139.981 221.897 136.879 222.581 132.172C223.182 128.015 223.529 123.837 223.623 119.637C223.623 119.452 223.003 112.641 222.313 114.969C216.374 135.139 215.159 154.28 215.575 175.781C215.658 179.913 215.409 184.505 215.511 188.892C215.978 208.749 216.08 228.568 216.885 248.406C216.924 249.361 217.395 249.688 218.298 249.385C225.803 246.878 235.105 245.036 242.584 248.221C244.199 248.912 246.049 250.174 248.133 252.007C254.737 257.82 259.665 264.037 269.28 264.414C275.347 264.65 274.407 257.021 273.243 253.241C270.936 245.752 264.402 246.731 258.342 243.552C252.022 240.231 248.504 234.77 247.788 227.168C247.204 220.977 246.948 214.172 247.021 206.754C247.206 188.374 247.033 172.744 248.484 157.619C249.296 149.145 251.521 140.652 253.177 132.249C255.446 120.782 252.461 111.617 247.053 101.685C244.329 96.6907 241.293 94.4076 236.664 90.8582C227.267 83.6443 217.934 81.9304 206.325 81.1694C205.001 81.0798 203.863 80.3124 202.63 80.4275C195.515 81.0734 193.379 86.8356 193.584 93.2757C193.967 105.363 194.215 115.41 194.325 123.417C194.46 133.208 193.296 138.657 183.087 141.618C174.367 144.144 171.184 138.139 171.452 130.599C171.456 130.511 171.426 130.425 171.369 130.359C171.312 130.294 171.232 130.253 171.146 130.247C169.603 130.132 168.005 130.518 166.351 131.404C160.457 134.559 158.825 139.354 161.454 145.787C161.812 146.666 162.419 147.31 163.276 147.719C171.197 151.511 174.099 154.568 175.288 163.509C176.451 172.219 174.233 179.868 168.633 186.455ZM85.8221 94.7977C80.9977 91.3571 75.8665 90.6408 70.4284 92.6489C56.0129 97.9698 51.9152 115.237 50.822 128.744C50.7794 129.264 50.9904 129.407 51.4549 129.172C57.9179 125.853 58.9408 138.228 59.8421 142.718C61.0503 148.736 66.9572 152.311 72.6787 152.886C82.1271 153.839 91.876 150.443 92.9308 139.75C93.1417 137.64 92.8924 134.807 92.7198 132.805C92.1104 125.992 91.5222 119.177 90.9554 112.359C90.4824 106.661 89.5618 100.342 86.423 95.4245C86.2653 95.1772 86.065 94.9683 85.8221 94.7977ZM225.95 119.643C225.899 124.871 225.449 129.906 224.601 134.749C224.052 137.902 224.486 144.604 229.262 142.922C230.681 142.424 232.42 140.69 232.746 139.296C234.578 131.332 232.654 124.636 226.973 119.209C226.3 118.565 225.959 118.71 225.95 119.643ZM179.622 138.171C177.736 136.099 176.458 133.432 174.431 131.596C174.398 131.565 174.359 131.541 174.317 131.525C174.275 131.509 174.23 131.502 174.187 131.505C174.144 131.507 174.103 131.519 174.067 131.539C174.03 131.559 174 131.588 173.977 131.622C173.492 132.351 174.988 136.054 175.32 137C176.13 139.26 177.779 140.015 180.268 139.264C180.365 139.235 180.448 139.175 180.499 139.098C180.551 139.022 180.567 138.934 180.543 138.855C180.483 138.672 180.351 138.544 180.146 138.471C179.895 138.382 179.72 138.282 179.622 138.171ZM124.607 263.058C128.621 258.76 139.092 255.985 144.322 255.185C158.974 252.951 174.314 252.574 190.343 254.053C195.252 254.508 202.783 252.461 203.55 246.501C203.904 243.763 203.209 241.619 201.466 240.067C194.498 233.838 184.717 242.734 177.321 241.89C173.651 241.474 171.062 240.009 167.968 237.643C164.689 235.13 162.707 233.947 159.134 236.396C156.777 238.012 153.732 239.82 149.998 241.819C140.007 247.166 128.014 254.169 116.462 249.142C113.17 247.709 110.357 244.39 107.231 242.695C99.5536 238.519 89.3892 241.499 80.5928 244.026C75.7536 245.413 63.1152 249.199 62.1946 241.097C60.5901 226.969 74.296 213.84 82.7792 203.997C87.2413 198.817 89.9454 191.725 88.002 184.876C85.5792 176.344 82.0056 174.931 73.9189 173.511C66.7079 172.245 60.9736 173.364 55.0092 168.152C54.8175 167.986 54.7983 168.024 54.5617 168.018C54.5268 168.016 54.4924 168.024 54.4617 168.041C54.4311 168.058 54.4053 168.084 54.3868 168.116C54.3682 168.148 54.3575 168.185 54.3557 168.224C54.3539 168.262 54.361 168.302 54.3764 168.337C56.6266 173.249 59.7015 175.909 64.5791 177.975C68.2933 179.535 72.2184 181.857 73.8741 185.701C79.538 198.856 65.6083 209.433 60.2449 220.069C57.9179 224.686 56.422 229.406 56.0321 234.682C55.6996 239.101 55.1818 243.258 56.0065 247.441C58.5124 260.116 69.1499 258.07 77.8951 253.874C78.5898 253.542 80.5311 252.474 83.7189 250.67C88.3856 248.029 96.6833 244.684 101.682 247.044C105.818 248.995 109.219 254.38 111.834 258.044C114.608 261.926 117.338 264.51 120.841 267.305C120.892 267.344 120.95 267.373 121.013 267.388C121.075 267.403 121.14 267.405 121.203 267.393C121.266 267.381 121.326 267.355 121.378 267.318C121.43 267.28 121.474 267.232 121.506 267.177C122.397 265.689 123.43 264.316 124.607 263.058ZM81.4814 173.3C81.4516 173.633 81.6199 173.837 81.9865 173.914C83.6869 174.276 85.1168 175.255 86.276 176.849C91.8568 184.524 90.9746 195.268 85.7837 202.84C84.4498 204.784 82.3444 207.434 79.4677 210.789C79.3901 210.881 79.3313 210.979 79.2958 211.075C79.2602 211.172 79.2491 211.265 79.2632 211.346C79.3143 211.648 79.5295 211.695 79.9088 211.486C88.0851 206.914 96.8047 195.652 94.3947 185.528C94.237 184.863 94.0793 184.048 93.9216 183.085C92.8391 176.485 88.7627 173.117 81.6924 172.98C81.3472 172.494 80.9935 172.371 80.6312 172.609C80.5916 172.635 80.5577 172.669 80.5315 172.708C80.5053 172.748 80.4875 172.792 80.4791 172.838C80.4707 172.884 80.4719 172.932 80.4827 172.977C80.4935 173.022 80.5136 173.065 80.5417 173.102C80.7633 173.396 81.0766 173.462 81.4814 173.3ZM85.9627 252.327C92.8157 252.416 101.101 253.753 107.135 256.509C108.29 257.038 108.442 256.833 107.589 255.895C102.91 250.722 101.842 246.59 93.4358 248.451C92.5792 248.643 84.4988 250.766 85.3682 252.103C85.462 252.248 85.6601 252.322 85.9627 252.327ZM52.906 261.594C53.8735 261.623 53.9949 261.316 53.2704 260.673C51.8427 259.411 51.082 257.624 50.9882 255.313C50.9845 255.209 50.9553 255.11 50.9042 255.028C50.8531 254.947 50.7823 254.886 50.7006 254.853C50.3042 254.695 49.9313 254.778 49.5818 255.102C49.3986 255.273 49.226 255.384 49.064 255.435C41.5782 257.852 34.2457 259.777 27.1754 263.352C25.7946 264.056 26.8494 264.593 27.8402 264.35C31.9529 263.344 36.1124 262.679 40.3188 262.355C43.4832 262.105 48.6869 261.472 52.906 261.594ZM137.168 268.827C154.761 269.351 176.036 269.607 194.632 270.553C216.917 271.679 234.708 271.89 251.834 272.99C252.346 273.02 252.427 272.866 252.077 272.529C241.216 261.939 226.059 259.656 211.643 258.364C200.053 257.321 188.559 256.26 176.918 256.004C170.023 255.855 161.552 256.213 151.507 257.078C145.492 257.603 126.997 260.526 125.073 267.503C124.809 268.462 125.173 268.923 126.166 268.884C129.968 268.739 133.635 268.72 137.168 268.827Z" fill="#DEDEDE" fill-opacity="0.75"/>
<path d="M140.985 125.073C140.614 134.25 146.035 141.631 152.728 147.533C152.798 147.597 152.844 147.68 152.86 147.77C152.875 147.86 152.858 147.951 152.811 148.026C152.423 148.661 151.927 149.147 151.322 149.484C151.239 149.53 151.144 149.55 151.046 149.542C150.949 149.534 150.854 149.499 150.772 149.439C142.73 143.526 138.613 135.598 138.421 125.655C138.255 117.085 143.324 111.17 148.912 105.318C149.376 104.832 149.468 104.512 149.187 104.359C149.115 104.319 149.024 104.31 148.925 104.33C148.827 104.351 148.727 104.401 148.637 104.474C145.575 106.981 141.624 109.641 137.737 109.763C133.429 109.899 131.146 107.364 130.891 102.159C130.488 93.9408 133.269 85.5949 139.636 80.1973C147.158 73.8148 156.001 70.2867 166.166 69.613C174.943 69.0311 181.201 72.4845 186.801 79.0397C186.865 79.1158 186.901 79.2104 186.901 79.3035C186.901 79.3966 186.865 79.4809 186.801 79.5386L185.158 81.0798C185.128 81.1083 185.091 81.1293 185.05 81.1415C185.009 81.1537 184.964 81.157 184.919 81.151C184.874 81.1451 184.829 81.13 184.786 81.1068C184.744 81.0836 184.705 81.0527 184.672 81.0159C180.102 75.9316 176.183 73.0281 169.349 72.6508C159.722 72.12 151.226 75.42 143.299 80.8112C136.695 85.3071 133.703 93.9791 133.825 101.685C133.959 109.686 139.271 107.633 143.484 104.352C147.755 101.022 151.409 97.132 154.448 92.6809C155.164 91.6257 156.602 89.7007 157.273 92.4251C157.322 92.6339 157.293 92.8472 157.19 93.0198L152.933 100.125C152.813 100.327 152.763 100.539 152.792 100.72C152.873 101.291 153.078 101.792 153.406 102.223C153.472 102.309 153.522 102.403 153.552 102.499C153.581 102.595 153.59 102.69 153.578 102.779C153.365 104.284 152.775 105.501 151.808 106.431C147.045 110.991 141.26 118.345 140.985 125.073Z" fill="#DEDEDE" fill-opacity="0.75"/>
<path d="M179.309 100.259L179.303 100.406C179.295 100.504 179.327 100.603 179.392 100.681C182.007 103.892 185.024 107.294 186.552 110.946C188.252 115.013 189.409 120.417 188.15 124.689C187.178 127.989 183.266 131.315 179.942 128.706C175.09 124.894 172.341 116.235 171.689 110.351C171.54 109.008 172.1 108.111 173.37 107.659C181.789 104.659 184.621 119.944 181.195 124.804C181.14 124.884 181.11 124.977 181.107 125.07C181.105 125.164 181.131 125.254 181.182 125.329C184.404 130.004 185.862 120.955 185.676 119.087C185.037 112.538 182.205 108.055 177.212 104.007C172.354 100.074 168.422 95.9489 165.424 90.2571C165.372 90.1591 165.34 90.0551 165.33 89.9524C165.32 89.8497 165.333 89.7507 165.367 89.6623C165.52 89.253 165.797 88.9716 166.198 88.8181C166.283 88.7831 166.381 88.7736 166.481 88.7904C166.58 88.8072 166.679 88.8498 166.767 88.9141C171.258 92.2226 174.203 94.1412 175.601 94.6698C179.215 96.0299 182.827 97.39 186.437 98.75C186.535 98.7866 186.621 98.8459 186.685 98.9215C186.749 98.997 186.79 99.0859 186.801 99.1785C186.899 99.9374 186.676 100.564 186.13 101.059C186.058 101.124 185.97 101.172 185.871 101.197C185.772 101.223 185.666 101.226 185.561 101.206L179.661 100.016C179.619 100.009 179.576 100.009 179.534 100.017C179.493 100.026 179.455 100.042 179.421 100.065C179.388 100.088 179.361 100.117 179.341 100.151C179.322 100.184 179.311 100.221 179.309 100.259ZM175.333 109.923C175.12 110.026 174.949 110.199 174.846 110.413C174.744 110.627 174.717 110.868 174.77 111.099C175.716 115.212 176.445 119.426 178.817 122.636C179.29 123.272 179.616 123.204 179.795 122.432C180.901 117.75 179.859 114.905 177.871 110.882C177.291 109.701 176.445 109.381 175.333 109.923Z" fill="#DEDEDE" fill-opacity="0.75"/>
<path d="M64.5216 126.416C62.4312 123.756 62.3736 119.279 63.3261 116.12C64.8306 111.119 66.5672 106.203 68.5362 101.372C69.282 99.5431 69.9042 99.6049 70.4029 101.558C71.3575 105.292 72.5807 108.929 74.0723 112.468C75.5256 115.913 76.3033 118.185 76.4056 119.285C76.9874 125.546 70.3517 133.828 64.5216 126.416ZM68.044 125.534C72.4869 128.124 74.0787 122.15 73.644 119.132C73.5289 118.309 73.0516 117.083 72.212 115.455C71.1551 113.395 70.2942 111.244 69.6294 109.002C69.4418 108.366 69.2309 108.358 68.9965 108.976C67.4303 113.114 62.9042 122.547 68.044 125.534Z" fill="#DEDEDE" fill-opacity="0.75"/>
<path d="M153.131 131.436C149.148 134.538 145.766 132.46 144.488 128.213C142.66 122.125 147.87 114.271 151.967 110.453C154.39 108.202 158.194 108.388 159.626 111.63C160.815 114.316 160.789 116.855 159.786 119.746C158.52 123.41 156.378 128.91 153.131 131.436ZM156.167 112.327C151.309 114.463 143.849 123.89 147.978 129.345C149.206 130.963 151.903 129.473 152.447 128.341C153.904 125.316 160.38 115.467 156.717 112.398C156.642 112.336 156.55 112.297 156.453 112.284C156.356 112.272 156.257 112.287 156.167 112.327Z" fill="#DEDEDE" fill-opacity="0.75"/>
<path d="M68.5909 121.534C67.7118 122.539 67.6215 123.898 68.3893 124.57C69.157 125.243 70.492 124.974 71.371 123.969C72.2501 122.964 72.3404 121.605 71.5726 120.933C70.8049 120.26 69.4699 120.53 68.5909 121.534Z" fill="#DEDEDE" fill-opacity="0.75"/>
<path d="M118.489 138.996C123.028 139.674 129.139 141.778 131.3 146.318C131.39 146.517 131.411 146.734 131.357 146.932C130.991 148.267 130.087 149.049 128.647 149.279C128.559 149.293 128.469 149.275 128.393 149.227C128.317 149.179 128.26 149.104 128.231 149.017C127.596 147.064 126.959 145.871 126.32 145.436C119.857 141.004 110.46 140.729 105.876 147.911C104.943 149.375 104.022 149.874 102.481 148.844C101.518 148.201 101.395 147.42 102.111 146.504C106.055 141.445 111.885 138.011 118.489 138.996Z" fill="#DEDEDE" fill-opacity="0.75"/>
<path d="M104.802 178.934C95.8267 172.162 104.955 158.316 109.75 152.323C111.212 150.499 112.439 150.3 113.432 151.729C114.922 153.871 113.675 158.098 113.611 160.593C113.5 165.402 113.443 170.209 113.439 175.014C113.439 179.44 108.152 181.467 104.802 178.934ZM106.566 176.702C107.167 177.227 107.843 177.35 108.593 177.073C110.613 176.331 110.965 174.541 110.913 172.424C110.786 167.214 110.954 162.014 111.418 156.826C111.491 155.99 111.246 155.883 110.683 156.506C106.656 160.951 100.493 171.452 106.566 176.702Z" fill="#DEDEDE" fill-opacity="0.75"/>
<path d="M174.195 200.761C173.675 200.297 173.281 199.745 173.012 199.105C171.482 195.498 171.627 191.797 173.447 188.003C175.693 183.309 177.585 178.476 179.124 173.505C179.757 171.458 180.46 167.736 181.636 164.935C182.135 163.745 182.712 163.705 183.368 164.813C186.303 169.744 187.901 174.931 188.757 180.859C189.908 188.77 191.346 201.983 179.303 202.763C177.521 202.883 175.819 202.215 174.195 200.761ZM177.078 199.655C180.658 201.478 184.212 198.414 185.446 195.249C188.176 188.246 186.149 177.969 183.464 171.183C183.038 170.1 182.678 170.122 182.384 171.247C181.578 174.325 180.75 177.561 179.897 180.955C178.363 187.037 172.405 192.07 176.145 198.766C176.361 199.15 176.686 199.459 177.078 199.655Z" fill="#DEDEDE" fill-opacity="0.75"/>
<path d="M81.6924 172.98L81.4814 173.3C81.0766 173.462 80.7633 173.396 80.5417 173.102C80.5136 173.065 80.4935 173.022 80.4827 172.977C80.4719 172.932 80.4707 172.884 80.4791 172.838C80.4875 172.792 80.5053 172.748 80.5315 172.708C80.5577 172.669 80.5916 172.635 80.6312 172.609C80.9935 172.371 81.3472 172.494 81.6924 172.98Z" fill="#DEDEDE" fill-opacity="0.75"/>
<path d="M54.1654 195.198C58.2503 208.909 42.0448 207.95 44.0394 196.521C45.6375 187.363 46.622 181.927 46.9928 180.213C47.1079 179.676 47.4808 179.356 48.1115 179.254C48.2017 179.239 48.2951 179.256 48.3771 179.303C48.4591 179.349 48.5253 179.422 48.5654 179.51C50.3298 183.356 52.1964 188.585 54.1654 195.198ZM46.5453 196.892C45.3179 202.053 52.0047 204.688 52.2412 199.598C52.3754 196.675 49.7608 191.565 48.8722 188.527C48.8473 188.437 48.8072 188.356 48.7565 188.294C48.7057 188.232 48.6462 188.191 48.5846 188.176C48.2649 188.08 48.1754 188.31 48.1371 188.591C47.7279 191.388 47.1973 194.155 46.5453 196.892Z" fill="#DEDEDE" fill-opacity="0.75"/>
<path d="M64.5216 277.262C63.8397 277.07 63.7672 276.744 64.3042 276.284C64.7048 275.938 65.2184 275.753 65.8449 275.727C76.4482 275.339 87.0495 274.885 97.6486 274.365C112.058 273.661 128.564 274.627 143.977 275.171C144.076 275.175 144.17 275.211 144.239 275.272C144.307 275.333 144.344 275.414 144.341 275.497L144.264 277.761C144.264 277.801 144.253 277.841 144.233 277.878C144.213 277.915 144.184 277.949 144.148 277.976C144.112 278.004 144.069 278.026 144.022 278.041C143.975 278.055 143.925 278.062 143.874 278.061C125.041 277.575 106.483 276.757 87.6376 277.697C83.8787 277.882 79.3846 277.825 75.2549 278.106C71.0485 278.394 68.1654 278.279 64.5216 277.262Z" fill="#DEDEDE" fill-opacity="0.75"/>
<path d="M56.1727 283.363C54.517 283.267 53.1554 283.427 53.8394 280.971C53.8636 280.883 53.917 280.806 53.9912 280.751C54.0653 280.697 54.1559 280.669 54.2485 280.671C62.1115 280.754 70.4284 281.285 77.8184 281.528C86.0224 281.796 94.2178 282.28 102.405 282.979C102.502 282.988 102.593 283.028 102.658 283.091C102.724 283.154 102.759 283.235 102.756 283.318L102.673 285.717C102.672 285.757 102.66 285.797 102.64 285.834C102.62 285.871 102.591 285.903 102.556 285.93C102.521 285.956 102.479 285.976 102.435 285.987C102.39 285.999 102.343 286.003 102.296 285.998C86.928 284.527 71.6495 284.265 56.1727 283.363Z" fill="#DEDEDE" fill-opacity="0.75"/>
</svg>
